<svg xmlns="http://www.w3.org/2000/svg" xmlns:xlink="http://www.w3.org/1999/xlink" style="margin:auto;background:#ffffff;display:block;z-index:1;position:relative" width="1920" height="969" preserveAspectRatio="xMidYMid" viewBox="0 0 1920 969">
<g transform="translate(960,484.5) scale(1,1) translate(-960,-484.5)"><path id="path0" d="M 1496.806637449664 955.6113808469554
c 0 22.15478467288214 -5.420851568896693 6.363608363487423 -11.784459932384117 6.363608363487423
S 1473.2377175848958 977.7661655198375 1473.2377175848958 955.6113808469554
s 5.420851568896693 -6.363608363487423 11.784459932384117 -6.363608363487423
S 1496.806637449664 933.4565961740733 1496.806637449664 955.6113808469554
z" fill="none" stroke="none"></path>
<circle cx="0" cy="0" r="5.281806367289415" fill="#ffffff">
  <animateMotion begin="-4.563316749246313s" dur="10s" repeatCount="indefinite">
    <mpath xlink:href="#path0"></mpath>
  </animateMotion>
</circle><path id="path1" d="M 1043.649757327548 635.3154796806102
c 0 19.652006710214742 -4.808469726967436 5.644725331657426 -10.453195058624862 5.644725331657426
S 1022.7433672102983 654.967486390825 1022.7433672102983 635.3154796806102
s 4.808469726967436 -5.644725331657426 10.453195058624862 -5.644725331657426
S 1043.649757327548 615.6634729703954 1043.649757327548 635.3154796806102
z" fill="none" stroke="none"></path>
<circle cx="0" cy="0" r="4.449145801175806" fill="#006bbe">
  <animateMotion begin="-4.772390554803778s" dur="10s" repeatCount="indefinite">
    <mpath xlink:href="#path1"></mpath>
  </animateMotion>
</circle><path id="path2" d="M 1675.4736048828195 749.6477141048018
c 0 28.975661374085853 -7.089789485148666 8.322796352131043 -15.412585837279709 8.322796352131043
S 1644.64843320826 778.6233754788876 1644.64843320826 749.6477141048018
s 7.089789485148666 -8.322796352131043 15.412585837279709 -8.322796352131043
S 1675.4736048828195 720.672052730716 1675.4736048828195 749.6477141048018
z" fill="none" stroke="none"></path>
<circle cx="0" cy="0" r="8.221977034507287" fill="#a6a6a6">
  <animateMotion begin="-8.393249286929638s" dur="10s" repeatCount="indefinite">
    <mpath xlink:href="#path2"></mpath>
  </animateMotion>
</circle><path id="path3" d="M 511.19912786590976 606.3515593883999
c 0 19.485549663131994 -4.767740875021658 5.596913201112382 -10.36465407613404 5.596913201112382
S 490.46981971364164 625.8371090515319 490.46981971364164 606.3515593883999
s 4.767740875021658 -5.596913201112382 10.36465407613404 -5.596913201112382
S 511.19912786590976 586.8660097252679 511.19912786590976 606.3515593883999
z" fill="none" stroke="none"></path>
<circle cx="0" cy="0" r="6.234016776132963" fill="#a6a6a6">
  <animateMotion begin="-4.071710755817297s" dur="10s" repeatCount="indefinite">
    <mpath xlink:href="#path3"></mpath>
  </animateMotion>
</circle><path id="path4" d="M 889.4889932969231 43.78930927053983
c 0 33.33683295927897 -8.15688466024911 9.575473296814174 -17.732357957063282 9.575473296814174
S 854.0242773827965 77.12614222981881 854.0242773827965 43.78930927053983
s 8.15688466024911 -9.575473296814174 17.732357957063282 -9.575473296814174
S 889.4889932969231 10.45247631126086 889.4889932969231 43.78930927053983
z" fill="none" stroke="none"></path>
<circle cx="0" cy="0" r="4.462202095975399" fill="#ffffff">
  <animateMotion begin="-0.4457395766881511s" dur="10s" repeatCount="indefinite">
    <mpath xlink:href="#path4"></mpath>
  </animateMotion>
</circle><path id="path5" d="M 601.557656039144 659.4210764807926
c 0 23.399623490091084 -5.725439790128669 6.721168449281482 -12.44660823941015 6.721168449281482
S 576.6644395603238 682.8206999708838 576.6644395603238 659.4210764807926
s 5.725439790128669 -6.721168449281482 12.44660823941015 -6.721168449281482
S 601.557656039144 636.0214529907015 601.557656039144 659.4210764807926
z" fill="none" stroke="none"></path>
<circle cx="0" cy="0" r="5.599745146110976" fill="#ffffff">
  <animateMotion begin="-7.333755918012345s" dur="10s" repeatCount="indefinite">
    <mpath xlink:href="#path5"></mpath>
  </animateMotion>
</circle><path id="path6" d="M 815.9358561380199 639.4213756726424
c 0 22.464171439341158 -5.496552586221772 6.4524747751299065 -11.949027361351678 6.4524747751299065
S 792.0378014153165 661.8855471119836 792.0378014153165 639.4213756726424
s 5.496552586221772 -6.4524747751299065 11.949027361351678 -6.4524747751299065
S 815.9358561380199 616.9572042333012 815.9358561380199 639.4213756726424
z" fill="none" stroke="none"></path>
<circle cx="0" cy="0" r="5.845385125734647" fill="#a6a6a6">
  <animateMotion begin="-9.886553582754534s" dur="10s" repeatCount="indefinite">
    <mpath xlink:href="#path6"></mpath>
  </animateMotion>
</circle><path id="path7" d="M 1468.2705459940692 859.8277761677139
c 0 22.988573513625525 -5.6248637320573085 6.603100902849885 -12.227964634907194 6.603100902849885
S 1443.8146167242546 882.8163496813394 1443.8146167242546 859.8277761677139
s 5.6248637320573085 -6.603100902849885 12.227964634907194 -6.603100902849885
S 1468.2705459940692 836.8392026540884 1468.2705459940692 859.8277761677139
z" fill="none" stroke="none"></path>
<circle cx="0" cy="0" r="5.465657659082332" fill="#47afff">
  <animateMotion begin="-5.693661826942929s" dur="10s" repeatCount="indefinite">
    <mpath xlink:href="#path7"></mpath>
  </animateMotion>
</circle><path id="path8" d="M 1597.5383326374206 925.3945947239091
c 0 33.46540150293205 -8.188342920930182 9.612402559352825 -17.800745480283005 9.612402559352825
S 1561.9368416768546 958.8599962268412 1561.9368416768546 925.3945947239091
s 8.188342920930182 -9.612402559352825 17.800745480283005 -9.612402559352825
S 1597.5383326374206 891.929193220977 1597.5383326374206 925.3945947239091
z" fill="none" stroke="none"></path>
<circle cx="0" cy="0" r="4.956353995878183" fill="#006bbe">
  <animateMotion begin="-7.473825933194984s" dur="10s" repeatCount="indefinite">
    <mpath xlink:href="#path8"></mpath>
  </animateMotion>
</circle><path id="path9" d="M 1784.1681578142861 122.54404969533013
c 0 35.389131313491106 -8.659042768194631 10.164963249619786 -18.824006017814416 10.164963249619786
S 1746.5201457786575 157.93318100882124 1746.5201457786575 122.54404969533013
s 8.659042768194631 -10.164963249619786 18.824006017814416 -10.164963249619786
S 1784.1681578142861 87.15491838183902 1784.1681578142861 122.54404969533013
z" fill="none" stroke="none"></path>
<circle cx="0" cy="0" r="5.603660878122477" fill="#006bbe">
  <animateMotion begin="-7.000286879311983s" dur="10s" repeatCount="indefinite">
    <mpath xlink:href="#path9"></mpath>
  </animateMotion>
</circle><path id="path10" d="M 1297.2563234550714 575.2026815561893
c 0 23.547607478502442 -5.761648638356981 6.763674488506021 -12.525323126863002 6.763674488506021
S 1272.2056772013455 598.7502890346917 1272.2056772013455 575.2026815561893
s 5.761648638356981 -6.763674488506021 12.525323126863002 -6.763674488506021
S 1297.2563234550714 551.6550740776869 1297.2563234550714 575.2026815561893
z" fill="none" stroke="none"></path>
<circle cx="0" cy="0" r="5.483542134247373" fill="#179aff">
  <animateMotion begin="-8.555946241819814s" dur="10s" repeatCount="indefinite">
    <mpath xlink:href="#path10"></mpath>
  </animateMotion>
</circle><path id="path11" d="M 163.36788624256906 590.6305718520802
c 0 23.99049268609689 -5.87001416787477 6.890886197070383 -12.760900364945154 6.890886197070383
S 137.84608551267877 614.621064538177 137.84608551267877 590.6305718520802
s 5.87001416787477 -6.890886197070383 12.760900364945154 -6.890886197070383
S 163.36788624256906 566.6400791659833 163.36788624256906 590.6305718520802
z" fill="none" stroke="none"></path>
<circle cx="0" cy="0" r="8.075587935819039" fill="#ff9336">
  <animateMotion begin="-1.5380700349934484s" dur="10s" repeatCount="indefinite">
    <mpath xlink:href="#path11"></mpath>
  </animateMotion>
</circle><path id="path12" d="M 1149.6595420498447 713.9750266576077
c 0 33.90861196655857 -8.296788034370712 9.739707692522142 -18.036495726892852 9.739707692522142
S 1113.5865505960592 747.8836386241662 1113.5865505960592 713.9750266576077
s 8.296788034370712 -9.739707692522142 18.036495726892852 -9.739707692522142
S 1149.6595420498447 680.0664146910492 1149.6595420498447 713.9750266576077
z" fill="none" stroke="none"></path>
<circle cx="0" cy="0" r="6.501521918734578" fill="#ff9336">
  <animateMotion begin="-4.430648512601629s" dur="10s" repeatCount="indefinite">
    <mpath xlink:href="#path12"></mpath>
  </animateMotion>
</circle><path id="path13" d="M 1153.1645908092116 191.65160746505435
c 0 24.20370262977112 -5.9221825583482515 6.95212735110447 -12.874309909452721 6.95212735110447
S 1127.4159709903063 215.85531009482548 1127.4159709903063 191.65160746505435
s 5.9221825583482515 -6.95212735110447 12.874309909452721 -6.95212735110447
S 1153.1645908092116 167.44790483528323 1153.1645908092116 191.65160746505435
z" fill="none" stroke="none"></path>
<circle cx="0" cy="0" r="6.506998224576178" fill="#ff9336">
  <animateMotion begin="-8.287870276482739s" dur="10s" repeatCount="indefinite">
    <mpath xlink:href="#path13"></mpath>
  </animateMotion>
</circle><path id="path14" d="M 695.0263448092701 559.0261691228932
c 0 34.092516068947184 -8.34178584665729 9.79253121129334 -18.134317057950632 9.79253121129334
S 658.7577106933688 593.1186851918403 658.7577106933688 559.0261691228932
s 8.34178584665729 -9.79253121129334 18.134317057950632 -9.79253121129334
S 695.0263448092701 524.933653053946 695.0263448092701 559.0261691228932
z" fill="none" stroke="none"></path>
<circle cx="0" cy="0" r="7.970378269605778" fill="#006bbe">
  <animateMotion begin="-5.106485259359768s" dur="10s" repeatCount="indefinite">
    <mpath xlink:href="#path14"></mpath>
  </animateMotion>
</circle><path id="path15" d="M 477.7034627483464 270.22813665194724
c 0 33.11361681436923 -8.102267943941406 9.511358021148608 -17.613625965090016 9.511358021148608
S 442.47621081816635 303.34175346631645 442.47621081816635 270.22813665194724
s 8.102267943941406 -9.511358021148608 17.613625965090016 -9.511358021148608
S 477.7034627483464 237.114519837578 477.7034627483464 270.22813665194724
z" fill="none" stroke="none"></path>
<circle cx="0" cy="0" r="5.569133913003176" fill="#47afff">
  <animateMotion begin="-1.868458192810798s" dur="10s" repeatCount="indefinite">
    <mpath xlink:href="#path15"></mpath>
  </animateMotion>
</circle><path id="path16" d="M 1783.8114834970845 299.1750335116872
c 0 27.665821553208648 -6.7692967630191365 7.946565765283336 -14.715862528302473 7.946565765283336
S 1754.3797584404795 326.8408550648959 1754.3797584404795 299.1750335116872
s 6.7692967630191365 -7.946565765283336 14.715862528302473 -7.946565765283336
S 1783.8114834970845 271.50921195847855 1783.8114834970845 299.1750335116872
z" fill="none" stroke="none"></path>
<circle cx="0" cy="0" r="5.950360165951643" fill="#47afff">
  <animateMotion begin="-8.38319117434413s" dur="10s" repeatCount="indefinite">
    <mpath xlink:href="#path16"></mpath>
  </animateMotion>
</circle><path id="path17" d="M 1007.7327366457738 859.4929627517712
c 0 18.9425603986506 -4.634881799669827 5.440948199612406 -10.075829999282233 5.440948199612406
S 987.5810766472094 878.4355231504218 987.5810766472094 859.4929627517712
s 4.634881799669827 -5.440948199612406 10.075829999282233 -5.440948199612406
S 1007.7327366457738 840.5504023531206 1007.7327366457738 859.4929627517712
z" fill="none" stroke="none"></path>
<circle cx="0" cy="0" r="4.589772678442676" fill="#a6a6a6">
  <animateMotion begin="-5.07564649393716s" dur="10s" repeatCount="indefinite">
    <mpath xlink:href="#path17"></mpath>
  </animateMotion>
</circle><path id="path18" d="M 1515.7933716818843 422.51075400121914
c 0 18.86765867723956 -4.616554782728828 5.4194338753773215 -10.035988658106149 5.4194338753773215
S 1495.721394365672 441.3784126784587 1495.721394365672 422.51075400121914
s 4.616554782728828 -5.4194338753773215 10.035988658106149 -5.4194338753773215
S 1515.7933716818843 403.6430953239796 1515.7933716818843 422.51075400121914
z" fill="none" stroke="none"></path>
<circle cx="0" cy="0" r="5.096629726690354" fill="#ffffff">
  <animateMotion begin="-2.635701769833654s" dur="10s" repeatCount="indefinite">
    <mpath xlink:href="#path18"></mpath>
  </animateMotion>
</circle><path id="path19" d="M 292.8190726403713 69.99722416003996
c 0 30.535496342204482 -7.471451232667054 8.770834055739586 -16.242285288406638 8.770834055739586
S 260.334502063558 100.53272050224444 260.334502063558 69.99722416003996
s 7.471451232667054 -8.770834055739586 16.242285288406638 -8.770834055739586
S 292.8190726403713 39.46172781783548 292.8190726403713 69.99722416003996
z" fill="none" stroke="none"></path>
<circle cx="0" cy="0" r="4.861043245958658" fill="#179aff">
  <animateMotion begin="-8.96450139796606s" dur="10s" repeatCount="indefinite">
    <mpath xlink:href="#path19"></mpath>
  </animateMotion>
</circle><path id="path20" d="M 196.48170832443807 171.88131258710507
c 0 33.448143105458506 -8.184120121548357 9.607445360078508 -17.791565481626865 9.607445360078508
S 160.89857736118435 205.32945569256358 160.89857736118435 171.88131258710507
s 8.184120121548357 -9.607445360078508 17.791565481626865 -9.607445360078508
S 196.48170832443807 138.43316948164656 196.48170832443807 171.88131258710507
z" fill="none" stroke="none"></path>
<circle cx="0" cy="0" r="6.726217240038622" fill="#a6a6a6">
  <animateMotion begin="-2.8383510723044547s" dur="10s" repeatCount="indefinite">
    <mpath xlink:href="#path20"></mpath>
  </animateMotion>
</circle></g>
</svg>